<?xml version="1.0" encoding="UTF-8"?>
<svg version="1.1" xmlns="http://www.w3.org/2000/svg" width="1024" height="1536">
<path d="M0 0 C337.92 0 675.84 0 1024 0 C1024 506.88 1024 1013.76 1024 1536 C686.08 1536 348.16 1536 0 1536 C0 1029.12 0 522.24 0 0 Z " fill="#FEFEFE" transform="translate(0,0)"/>
<path d="M0 0 C1.30566541 0.52554245 2.60240981 1.07365177 3.890625 1.640625 C4.61032471 1.94935547 5.33002441 2.25808594 6.0715332 2.57617188 C29.27678252 12.87972777 53.24343659 27.95335518 71.79296875 45.3828125 C73.04787109 46.53136719 73.04787109 46.53136719 74.328125 47.703125 C75.02292969 48.39019531 75.71773437 49.07726562 76.43359375 49.78515625 C80.95518214 51.63163462 84.73829026 49.54616532 89.140625 47.890625 C89.89786865 47.62016357 90.6551123 47.34970215 91.43530273 47.07104492 C92.92946189 46.53519149 94.42104862 45.99211814 95.91015625 45.44238281 C114.45974372 38.63625308 133.53049433 34.20155718 153.140625 31.890625 C154.3788501 31.7361792 154.3788501 31.7361792 155.64208984 31.57861328 C202.14707733 25.92296351 250.36863198 31.22102781 293.8984375 48.7265625 C298.41436824 50.36412359 298.41436824 50.36412359 303.140625 50.890625 C305.36340181 49.41912192 307.00023478 48.08878377 308.890625 46.265625 C310.03410474 45.23535611 311.18282483 44.21088213 312.3359375 43.19140625 C312.94856445 42.6495166 313.56119141 42.10762695 314.19238281 41.54931641 C332.84141862 25.67192928 365.70786171 -0.37462762 391.203125 -1.734375 C395.66280537 -1.02648923 397.61239774 0.12175374 401.140625 2.890625 C418.74653815 27.82938326 418.18365935 69.87039254 413.578125 98.390625 C412.02862287 107.25824877 409.53384165 115.70634807 406.33959961 124.11914062 C403.96167421 130.51153723 403.96480613 134.0111331 406.59375 140.44921875 C407.18864617 141.74406153 407.78781168 143.03694903 408.390625 144.328125 C419.7594428 169.67971641 424.8868702 197.1551783 424.140625 224.890625 C424.70346191 224.83527588 425.26629883 224.77992676 425.84619141 224.72290039 C454.91750146 221.87619885 454.91750146 221.87619885 468.140625 221.578125 C469.20071777 221.53341064 469.20071777 221.53341064 470.28222656 221.48779297 C476.29562574 221.42033957 479.72285712 223.55622842 483.953125 227.640625 C485.70528841 230.96051357 486.25847248 234.18189558 486.140625 237.890625 C484.67992819 242.50335177 483.04551742 245.96195568 479.140625 248.890625 C473.62364801 250.79944501 468.35479713 251.36788439 462.55078125 251.7421875 C461.64742538 251.80594574 460.74406952 251.86970398 459.81333923 251.93539429 C457.91169035 252.06819183 456.00978867 252.19741268 454.10766602 252.32324219 C451.21505199 252.51483501 448.32336814 252.71737714 445.43164062 252.921875 C443.57556513 253.05012194 441.71944653 253.17774672 439.86328125 253.3046875 C439.00783218 253.36403473 438.15238312 253.42338196 437.27101135 253.48452759 C436.04450111 253.5649379 436.04450111 253.5649379 434.79321289 253.64697266 C434.08596573 253.69423492 433.37871857 253.74149719 432.65003967 253.79019165 C429.14954393 253.93029066 425.64392319 253.890625 422.140625 253.890625 C420.820625 260.160625 419.500625 266.430625 418.140625 272.890625 C420.615625 272.973125 423.090625 273.055625 425.640625 273.140625 C434.39823554 273.54458719 443.09520668 274.45767165 451.79541016 275.50622559 C453.2274153 275.67838054 454.65987576 275.84679166 456.09277344 276.01135254 C458.13772804 276.24821299 460.18016088 276.50069442 462.22265625 276.7578125 C463.41093018 276.90331543 464.5992041 277.04881836 465.82348633 277.19873047 C471.95481631 278.4776139 475.58539043 280.75528618 479.140625 285.890625 C480.74882239 289.10701978 480.60923731 292.40206667 480.140625 295.890625 C477.86426583 300.27472413 475.22955075 303.1490095 471.140625 305.890625 C468.11157227 306.3515625 468.11157227 306.3515625 464.64453125 306.265625 C464.00238174 306.25128418 463.36023224 306.23694336 462.69862366 306.22216797 C453.4620116 305.92847817 444.26189245 304.86482192 435.078125 303.890625 C432.31638158 303.6027371 429.55443964 303.31706716 426.79212952 303.03466797 C425.08996989 302.86015348 423.38814848 302.68229531 421.68675232 302.50048828 C417.48196953 302.06429737 413.3756947 301.79554074 409.140625 301.890625 C408.88482666 302.45346191 408.62902832 303.01629883 408.36547852 303.59619141 C402.28063001 316.89908809 395.77403428 329.18766251 387.1328125 341.01953125 C386.62548584 341.7261792 386.11815918 342.43282715 385.59545898 343.16088867 C384.61262062 344.5242112 383.61300654 345.87565781 382.59399414 347.2121582 C379.14984702 351.98462992 378.54828782 355.01661463 379.140625 360.890625 C381.22942844 367.03416452 385.45730793 370.89984432 391.0703125 373.93359375 C401.4922903 378.12204898 413.91026614 376.81528239 424.15136719 372.75683594 C429.38060947 370.47979229 434.49731439 367.9000535 439.54345703 365.24462891 C445.19251147 362.3843076 449.78963379 360.96090522 456.140625 361.890625 C464.22616717 364.58580572 468.41694286 368.44326072 472.140625 375.890625 C474.83529576 382.85185781 472.94086842 390.06428123 470.53515625 396.796875 C462.54876141 414.51459128 445.44288005 425.22105705 429.09033203 434.31567383 C420.92869663 438.85624016 420.92869663 438.85624016 415.140625 445.890625 C413.58105546 455.80080105 417.85998299 463.00326259 423.23828125 471.015625 C442.36723434 497.07443254 468.46298097 512.86656281 497.00292969 526.79980469 C504.11807737 530.30576408 509.5786508 533.30110671 514.140625 539.890625 C515.99052022 545.44031066 516.10576541 550.92322339 513.515625 556.203125 C504.61633264 566.27337688 492.23906835 569.73361316 479.81591797 573.80273438 C477.64185343 574.51522242 475.47116177 575.23731413 473.30078125 575.9609375 C466.36015858 578.26200341 459.42002261 580.45934961 452.3269043 582.25244141 C446.7270722 583.88705459 444.1004794 586.24569805 441.1484375 591.3046875 C440.09272981 593.29197543 439.06500468 595.29144681 438.0456543 597.29760742 C432.7514176 607.71084273 425.85126517 613.70461161 414.64453125 617.5390625 C408.38966424 619.32848527 402.294933 619.34042697 395.828125 619.265625 C394.59481445 619.25982422 393.36150391 619.25402344 392.09082031 619.24804688 C384.73675299 619.14508612 377.64091978 618.60018293 370.390625 617.390625 C335.80935332 611.63943338 312.81221791 622.68256222 283.82366943 639.78425598 C267.19178832 649.59300038 250.80694677 657.877416 232.015625 662.703125 C231.26579346 662.89801514 230.51596191 663.09290527 229.7434082 663.29370117 C216.68782238 666.44074507 203.40124067 667.30466909 190.015625 667.265625 C189.30373016 667.26508118 188.59183533 667.26453735 187.85836792 667.26397705 C150.73976642 667.13458804 121.05657096 652.64322952 89.95214844 633.60595703 C64.9033553 618.32349606 43.33876444 613.76967327 14.203125 617.390625 C4.5029994 618.57268939 -5.08538046 619.24480357 -14.859375 619.328125 C-15.99753662 619.35003906 -17.13569824 619.37195312 -18.30834961 619.39453125 C-30.3630312 619.36600157 -40.40741756 615.43821867 -49.46875 607.4765625 C-53.66267896 603.07970149 -56.2251002 597.67206019 -58.79321289 592.22094727 C-61.51031348 586.722607 -64.5318082 584.04016496 -70.48339844 581.98413086 C-73.72021187 581.00195604 -76.97197797 580.09654818 -80.234375 579.203125 C-89.60452966 576.52539226 -98.8431357 573.64798448 -107.984375 570.265625 C-108.94778809 569.91798096 -109.91120117 569.57033691 -110.90380859 569.2121582 C-119.66931499 565.90254352 -128.48996699 561.62944102 -132.859375 552.890625 C-133.3698575 547.76906285 -133.50199044 543.30973411 -131.359375 538.578125 C-125.25744373 532.01854888 -118.06719533 528.34049592 -109.984375 524.703125 C-84.41247864 512.79787546 -60.02962053 496.60818062 -42.859375 473.890625 C-42.2096875 473.045 -41.56 472.199375 -40.890625 471.328125 C-36.2042729 464.97374927 -31.19500966 457.82108721 -31.921875 449.578125 C-33.60675457 442.95093201 -36.55526483 439.98651995 -42.296875 436.515625 C-42.91723633 436.12769775 -43.53759766 435.73977051 -44.17675781 435.34008789 C-48.09981724 432.90444674 -52.09210363 430.60509982 -56.109375 428.328125 C-61.83960595 425.03515228 -66.80955099 421.13211387 -71.859375 416.890625 C-73.40625 415.7459375 -73.40625 415.7459375 -74.984375 414.578125 C-83.82851247 406.31077911 -90.19242275 395.72774237 -91.109375 383.578125 C-90.62030213 376.36430018 -88.0730213 370.98841249 -82.859375 365.890625 C-78.25464316 362.58097399 -73.48657059 361.01611185 -67.80859375 361.2421875 C-62.47513322 362.4148424 -57.8232799 365.16155682 -53.04296875 367.71484375 C-49.03426305 369.84514169 -44.94893655 371.64694394 -40.734375 373.328125 C-39.55617188 373.80121094 -38.37796875 374.27429688 -37.1640625 374.76171875 C-27.24629208 378.14970415 -16.96251342 378.07884198 -7.2734375 374.0859375 C-2.48188231 371.71341988 0.32042926 369.33963747 3.015625 364.578125 C4.52486496 359.6311718 5.38270873 355.42682722 3.0625 350.68920898 C1.52570174 348.30970885 -0.10438762 346.03696171 -1.796875 343.765625 C-2.99994169 342.07770873 -4.20175866 340.38890104 -5.40234375 338.69921875 C-6.29058838 337.46727783 -6.29058838 337.46727783 -7.19677734 336.21044922 C-14.97946609 325.35125561 -21.09046996 313.91940573 -26.859375 301.890625 C-31.94573876 302.2983165 -37.03199622 302.70730313 -42.11816406 303.11743164 C-43.84437319 303.25644979 -45.57060966 303.39512894 -47.296875 303.53344727 C-58.44180114 304.40985229 -58.44180114 304.40985229 -69.5703125 305.46875 C-73.59247409 305.88406766 -77.56504695 306.12206779 -81.609375 306.203125 C-82.84171875 306.24050781 -84.0740625 306.27789063 -85.34375 306.31640625 C-89.52781277 305.80966976 -91.60624964 304.51888317 -94.859375 301.890625 C-97.90627671 297.42183583 -98.81943336 293.17622105 -97.859375 287.890625 C-95.76531089 283.92686079 -93.65005644 281.25171497 -89.859375 278.890625 C-79.31368205 275.97774818 -68.08753258 275.29686677 -57.234375 274.203125 C-55.93000488 274.07164062 -54.62563477 273.94015625 -53.28173828 273.8046875 C-47.44198783 273.24254824 -41.731215 272.82509315 -35.859375 272.890625 C-36.148125 271.77042969 -36.436875 270.65023438 -36.734375 269.49609375 C-37.10956191 268.02348511 -37.48455165 266.55082622 -37.859375 265.078125 C-38.14554688 263.97114258 -38.14554688 263.97114258 -38.4375 262.84179688 C-39.21200414 259.78527159 -39.859375 257.05689022 -39.859375 253.890625 C-40.40948242 253.87080566 -40.95958984 253.85098633 -41.52636719 253.83056641 C-48.63985854 253.56640105 -55.74967913 253.24185396 -62.859375 252.890625 C-64.08317871 252.83148926 -65.30698242 252.77235352 -66.56787109 252.71142578 C-70.31234209 252.52093036 -74.05432979 252.30307323 -77.796875 252.078125 C-78.97411133 252.02027832 -80.15134766 251.96243164 -81.36425781 251.90283203 C-89.5070862 251.37737501 -96.13057428 250.19424914 -101.859375 243.890625 C-104.31942993 239.58552888 -104.12617318 235.57227047 -102.859375 230.890625 C-100.51044441 226.44443496 -98.36635458 224.07162491 -93.859375 221.890625 C-90.70703125 221.52734375 -90.70703125 221.52734375 -86.921875 221.578125 C-86.2196582 221.587229 -85.51744141 221.59633301 -84.79394531 221.60571289 C-76.88988105 221.77550755 -68.99718024 222.31338173 -61.109375 222.828125 C-60.44285919 222.87141937 -59.77634338 222.91471375 -59.08963013 222.95932007 C-46.92046119 223.76443314 -46.92046119 223.76443314 -41.859375 224.890625 C-41.89417969 223.93027344 -41.92898438 222.96992187 -41.96484375 221.98046875 C-42.65113145 194.10609674 -37.03512257 162.20478614 -23.05859375 137.73828125 C-20.45030458 131.54465648 -23.67152629 125.01960768 -25.796875 119.015625 C-37.19330946 86.68413453 -37.68330399 42.26648079 -23.30151367 10.64160156 C-18.23134679 0.18886784 -11.2053457 -3.75059758 0 0 Z " fill="#FDFDFD" transform="translate(320.859375,456.109375)"/>
<path d="M0 0 C1.30566541 0.52554245 2.60240981 1.07365177 3.890625 1.640625 C4.61032471 1.94935547 5.33002441 2.25808594 6.0715332 2.57617188 C29.27678252 12.87972777 53.24343659 27.95335518 71.79296875 45.3828125 C73.04787109 46.53136719 73.04787109 46.53136719 74.328125 47.703125 C75.02292969 48.39019531 75.71773437 49.07726562 76.43359375 49.78515625 C80.95518214 51.63163462 84.73829026 49.54616532 89.140625 47.890625 C89.89786865 47.62016357 90.6551123 47.34970215 91.43530273 47.07104492 C92.92946189 46.53519149 94.42104862 45.99211814 95.91015625 45.44238281 C114.45974372 38.63625308 133.53049433 34.20155718 153.140625 31.890625 C154.3788501 31.7361792 154.3788501 31.7361792 155.64208984 31.57861328 C202.14707733 25.92296351 250.36863198 31.22102781 293.8984375 48.7265625 C298.41436824 50.36412359 298.41436824 50.36412359 303.140625 50.890625 C305.36340181 49.41912192 307.00023478 48.08878377 308.890625 46.265625 C310.03410474 45.23535611 311.18282483 44.21088213 312.3359375 43.19140625 C312.94856445 42.6495166 313.56119141 42.10762695 314.19238281 41.54931641 C332.84141862 25.67192928 365.70786171 -0.37462762 391.203125 -1.734375 C395.66280537 -1.02648923 397.61239774 0.12175374 401.140625 2.890625 C418.74653815 27.82938326 418.18365935 69.87039254 413.578125 98.390625 C412.02862287 107.25824877 409.53384165 115.70634807 406.33959961 124.11914062 C403.96167421 130.51153723 403.96480613 134.0111331 406.59375 140.44921875 C407.18864617 141.74406153 407.78781168 143.03694903 408.390625 144.328125 C419.7594428 169.67971641 424.8868702 197.1551783 424.140625 224.890625 C424.70346191 224.83527588 425.26629883 224.77992676 425.84619141 224.72290039 C454.91750146 221.87619885 454.91750146 221.87619885 468.140625 221.578125 C469.20071777 221.53341064 469.20071777 221.53341064 470.28222656 221.48779297 C476.29562574 221.42033957 479.72285712 223.55622842 483.953125 227.640625 C485.70528841 230.96051357 486.25847248 234.18189558 486.140625 237.890625 C484.67992819 242.50335177 483.04551742 245.96195568 479.140625 248.890625 C473.62364801 250.79944501 468.35479713 251.36788439 462.55078125 251.7421875 C461.64742538 251.80594574 460.74406952 251.86970398 459.81333923 251.93539429 C457.91169035 252.06819183 456.00978867 252.19741268 454.10766602 252.32324219 C451.21505199 252.51483501 448.32336814 252.71737714 445.43164062 252.921875 C443.57556513 253.05012194 441.71944653 253.17774672 439.86328125 253.3046875 C439.00783218 253.36403473 438.15238312 253.42338196 437.27101135 253.48452759 C436.04450111 253.5649379 436.04450111 253.5649379 434.79321289 253.64697266 C434.08596573 253.69423492 433.37871857 253.74149719 432.65003967 253.79019165 C429.14954393 253.93029066 425.64392319 253.890625 422.140625 253.890625 C420.820625 260.160625 419.500625 266.430625 418.140625 272.890625 C420.615625 272.973125 423.090625 273.055625 425.640625 273.140625 C434.39823554 273.54458719 443.09520668 274.45767165 451.79541016 275.50622559 C453.2274153 275.67838054 454.65987576 275.84679166 456.09277344 276.01135254 C458.13772804 276.24821299 460.18016088 276.50069442 462.22265625 276.7578125 C463.41093018 276.90331543 464.5992041 277.04881836 465.82348633 277.19873047 C471.95481631 278.4776139 475.58539043 280.75528618 479.140625 285.890625 C480.74882239 289.10701978 480.60923731 292.40206667 480.140625 295.890625 C477.86426583 300.27472413 475.22955075 303.1490095 471.140625 305.890625 C468.11157227 306.3515625 468.11157227 306.3515625 464.64453125 306.265625 C464.00238174 306.25128418 463.36023224 306.23694336 462.69862366 306.22216797 C453.4620116 305.92847817 444.26189245 304.86482192 435.078125 303.890625 C432.31638158 303.6027371 429.55443964 303.31706716 426.79212952 303.03466797 C425.08996989 302.86015348 423.38814848 302.68229531 421.68675232 302.50048828 C417.48196953 302.06429737 413.3756947 301.79554074 409.140625 301.890625 C408.88482666 302.45346191 408.62902832 303.01629883 408.36547852 303.59619141 C402.28063001 316.89908809 395.77403428 329.18766251 387.1328125 341.01953125 C386.62548584 341.7261792 386.11815918 342.43282715 385.59545898 343.16088867 C384.61262062 344.5242112 383.61300654 345.87565781 382.59399414 347.2121582 C379.14984702 351.98462992 378.54828782 355.01661463 379.140625 360.890625 C381.22942844 367.03416452 385.45730793 370.89984432 391.0703125 373.93359375 C401.4922903 378.12204898 413.91026614 376.81528239 424.15136719 372.75683594 C429.38060947 370.47979229 434.49731439 367.9000535 439.54345703 365.24462891 C445.19251147 362.3843076 449.78963379 360.96090522 456.140625 361.890625 C464.22616717 364.58580572 468.41694286 368.44326072 472.140625 375.890625 C474.83529576 382.85185781 472.94086842 390.06428123 470.53515625 396.796875 C462.54876141 414.51459128 445.44288005 425.22105705 429.09033203 434.31567383 C420.92869663 438.85624016 420.92869663 438.85624016 415.140625 445.890625 C413.58105546 455.80080105 417.85998299 463.00326259 423.23828125 471.015625 C442.36723434 497.07443254 468.46298097 512.86656281 497.00292969 526.79980469 C504.11807737 530.30576408 509.5786508 533.30110671 514.140625 539.890625 C515.99052022 545.44031066 516.10576541 550.92322339 513.515625 556.203125 C504.61633264 566.27337688 492.23906835 569.73361316 479.81591797 573.80273438 C477.64185343 574.51522242 475.47116177 575.23731413 473.30078125 575.9609375 C466.36015858 578.26200341 459.42002261 580.45934961 452.3269043 582.25244141 C446.7270722 583.88705459 444.1004794 586.24569805 441.1484375 591.3046875 C440.09272981 593.29197543 439.06500468 595.29144681 438.0456543 597.29760742 C432.7514176 607.71084273 425.85126517 613.70461161 414.64453125 617.5390625 C408.38966424 619.32848527 402.294933 619.34042697 395.828125 619.265625 C394.59481445 619.25982422 393.36150391 619.25402344 392.09082031 619.24804688 C384.73675299 619.14508612 377.64091978 618.60018293 370.390625 617.390625 C335.80935332 611.63943338 312.81221791 622.68256222 283.82366943 639.78425598 C267.19178832 649.59300038 250.80694677 657.877416 232.015625 662.703125 C231.26579346 662.89801514 230.51596191 663.09290527 229.7434082 663.29370117 C216.68782238 666.44074507 203.40124067 667.30466909 190.015625 667.265625 C189.30373016 667.26508118 188.59183533 667.26453735 187.85836792 667.26397705 C150.73976642 667.13458804 121.05657096 652.64322952 89.95214844 633.60595703 C64.9033553 618.32349606 43.33876444 613.76967327 14.203125 617.390625 C4.5029994 618.57268939 -5.08538046 619.24480357 -14.859375 619.328125 C-15.99753662 619.35003906 -17.13569824 619.37195312 -18.30834961 619.39453125 C-30.3630312 619.36600157 -40.40741756 615.43821867 -49.46875 607.4765625 C-53.66267896 603.07970149 -56.2251002 597.67206019 -58.79321289 592.22094727 C-61.51031348 586.722607 -64.5318082 584.04016496 -70.48339844 581.98413086 C-73.72021187 581.00195604 -76.97197797 580.09654818 -80.234375 579.203125 C-89.60452966 576.52539226 -98.8431357 573.64798448 -107.984375 570.265625 C-108.94778809 569.91798096 -109.91120117 569.57033691 -110.90380859 569.2121582 C-119.66931499 565.90254352 -128.48996699 561.62944102 -132.859375 552.890625 C-133.3698575 547.76906285 -133.50199044 543.30973411 -131.359375 538.578125 C-125.25744373 532.01854888 -118.06719533 528.34049592 -109.984375 524.703125 C-84.41247864 512.79787546 -60.02962053 496.60818062 -42.859375 473.890625 C-42.2096875 473.045 -41.56 472.199375 -40.890625 471.328125 C-36.2042729 464.97374927 -31.19500966 457.82108721 -31.921875 449.578125 C-33.60675457 442.95093201 -36.55526483 439.98651995 -42.296875 436.515625 C-42.91723633 436.12769775 -43.53759766 435.73977051 -44.17675781 435.34008789 C-48.09981724 432.90444674 -52.09210363 430.60509982 -56.109375 428.328125 C-61.83960595 425.03515228 -66.80955099 421.13211387 -71.859375 416.890625 C-73.40625 415.7459375 -73.40625 415.7459375 -74.984375 414.578125 C-83.82851247 406.31077911 -90.19242275 395.72774237 -91.109375 383.578125 C-90.62030213 376.36430018 -88.0730213 370.98841249 -82.859375 365.890625 C-78.25464316 362.58097399 -73.48657059 361.01611185 -67.80859375 361.2421875 C-62.47513322 362.4148424 -57.8232799 365.16155682 -53.04296875 367.71484375 C-49.03426305 369.84514169 -44.94893655 371.64694394 -40.734375 373.328125 C-39.55617188 373.80121094 -38.37796875 374.27429688 -37.1640625 374.76171875 C-27.24629208 378.14970415 -16.96251342 378.07884198 -7.2734375 374.0859375 C-2.48188231 371.71341988 0.32042926 369.33963747 3.015625 364.578125 C4.52486496 359.6311718 5.38270873 355.42682722 3.0625 350.68920898 C1.52570174 348.30970885 -0.10438762 346.03696171 -1.796875 343.765625 C-2.99994169 342.07770873 -4.20175866 340.38890104 -5.40234375 338.69921875 C-6.29058838 337.46727783 -6.29058838 337.46727783 -7.19677734 336.21044922 C-14.97946609 325.35125561 -21.09046996 313.91940573 -26.859375 301.890625 C-31.94573876 302.2983165 -37.03199622 302.70730313 -42.11816406 303.11743164 C-43.84437319 303.25644979 -45.57060966 303.39512894 -47.296875 303.53344727 C-58.44180114 304.40985229 -58.44180114 304.40985229 -69.5703125 305.46875 C-73.59247409 305.88406766 -77.56504695 306.12206779 -81.609375 306.203125 C-82.84171875 306.24050781 -84.0740625 306.27789063 -85.34375 306.31640625 C-89.52781277 305.80966976 -91.60624964 304.51888317 -94.859375 301.890625 C-97.90627671 297.42183583 -98.81943336 293.17622105 -97.859375 287.890625 C-95.76531089 283.92686079 -93.65005644 281.25171497 -89.859375 278.890625 C-79.31368205 275.97774818 -68.08753258 275.29686677 -57.234375 274.203125 C-55.93000488 274.07164062 -54.62563477 273.94015625 -53.28173828 273.8046875 C-47.44198783 273.24254824 -41.731215 272.82509315 -35.859375 272.890625 C-36.148125 271.77042969 -36.436875 270.65023438 -36.734375 269.49609375 C-37.10956191 268.02348511 -37.48455165 266.55082622 -37.859375 265.078125 C-38.14554688 263.97114258 -38.14554688 263.97114258 -38.4375 262.84179688 C-39.21200414 259.78527159 -39.859375 257.05689022 -39.859375 253.890625 C-40.40948242 253.87080566 -40.95958984 253.85098633 -41.52636719 253.83056641 C-48.63985854 253.56640105 -55.74967913 253.24185396 -62.859375 252.890625 C-64.08317871 252.83148926 -65.30698242 252.77235352 -66.56787109 252.71142578 C-70.31234209 252.52093036 -74.05432979 252.30307323 -77.796875 252.078125 C-78.97411133 252.02027832 -80.15134766 251.96243164 -81.36425781 251.90283203 C-89.5070862 251.37737501 -96.13057428 250.19424914 -101.859375 243.890625 C-104.31942993 239.58552888 -104.12617318 235.57227047 -102.859375 230.890625 C-100.51044441 226.44443496 -98.36635458 224.07162491 -93.859375 221.890625 C-90.70703125 221.52734375 -90.70703125 221.52734375 -86.921875 221.578125 C-86.2196582 221.587229 -85.51744141 221.59633301 -84.79394531 221.60571289 C-76.88988105 221.77550755 -68.99718024 222.31338173 -61.109375 222.828125 C-60.44285919 222.87141937 -59.77634338 222.91471375 -59.08963013 222.95932007 C-46.92046119 223.76443314 -46.92046119 223.76443314 -41.859375 224.890625 C-41.89417969 223.93027344 -41.92898438 222.96992187 -41.96484375 221.98046875 C-42.65113145 194.10609674 -37.03512257 162.20478614 -23.05859375 137.73828125 C-20.45030458 131.54465648 -23.67152629 125.01960768 -25.796875 119.015625 C-37.19330946 86.68413453 -37.68330399 42.26648079 -23.30151367 10.64160156 C-18.23134679 0.18886784 -11.2053457 -3.75059758 0 0 Z M38.57421875 122.3046875 C9.29955888 154.69027852 -4.20877298 194.56160405 -2.859375 237.890625 C-1.13061633 270.52621551 14.2067082 300.81127603 37.34765625 323.4140625 C60.36511121 343.82394564 89.12687295 353.71509063 119.2590332 357.42236328 C125.73635615 358.27248996 130.4404576 359.69959052 136.140625 362.890625 C136.800625 362.890625 137.460625 362.890625 138.140625 362.890625 C140.71261186 367.71310037 140.87642713 372.57205525 140.140625 377.890625 C137.93644635 384.46798789 133.05714967 389.45723886 128.58398438 394.59863281 C115.30047756 410.01920581 101.97045155 429.49050828 102.76171875 450.625 C104.0255189 461.51713325 107.71959078 470.63600167 116.3125 477.66796875 C118.52909959 479.23105363 120.76139664 480.59059129 123.140625 481.890625 C123.74261719 482.2309375 124.34460938 482.57125 124.96484375 482.921875 C133.43192233 486.8890962 145.0397046 486.07398943 153.6796875 482.98828125 C171.40624562 475.08167358 183.05686528 461.17616438 190.515625 443.515625 C192.82365546 437.36303818 194.437184 431.15288464 195.67333984 424.69970703 C196.63216129 419.97822059 198.14674415 416.66527403 201.140625 412.890625 C205.85960708 410.02222413 209.64688797 409.41080622 214.9921875 410.25 C219.43098368 411.57356831 222.14431726 414.21501653 224.515625 418.203125 C228.08798667 433.5642802 220.13855044 452.42824826 213.140625 465.890625 C212.81078613 466.52693848 212.48094727 467.16325195 212.14111328 467.81884766 C200.5690348 489.60514078 182.05023193 505.46296854 158.48828125 512.9453125 C140.33045896 518.07272556 120.85814151 515.64096509 104.40234375 506.7734375 C89.50454367 498.17374931 80.34546 485.53325599 74.97265625 469.37890625 C68.85953002 444.66810021 75.37581083 419.51778352 88.10546875 398.10546875 C90.57583845 394.20313811 93.16566442 390.41216704 95.890625 386.68359375 C97.235942 385.1181862 97.235942 385.1181862 97.140625 383.890625 C96.55385986 383.80611084 95.96709473 383.72159668 95.36254883 383.63452148 C74.1506877 380.49011687 55.27171657 374.54392809 36.140625 364.890625 C35.59535156 366.00179688 35.05007813 367.11296875 34.48828125 368.2578125 C26.89311145 383.386887 17.60036465 395.96284079 1.11328125 402.05078125 C-7.99158291 404.62311475 -17.48519697 405.76361708 -26.859375 406.890625 C-23.58599106 410.27627301 -20.22394121 413.22255367 -16.484375 416.078125 C-8.87583778 422.26134326 -2.46741547 429.97200369 -0.859375 439.890625 C1.13644571 461.79980288 -7.77172882 478.69102878 -21.48095703 495.25537109 C-24.18375582 498.4617732 -26.97575993 501.57939525 -29.8203125 504.66015625 C-31.69392527 506.70964455 -33.46256027 508.81603093 -35.234375 510.953125 C-39.57004296 515.91527709 -44.68761846 519.83964077 -49.859375 523.890625 C-51.30957031 525.08171875 -51.30957031 525.08171875 -52.7890625 526.296875 C-62.36282676 533.99486357 -72.86858019 540.3952276 -83.859375 545.890625 C-83.859375 546.550625 -83.859375 547.210625 -83.859375 547.890625 C-82.82941406 548.15875 -81.79945313 548.426875 -80.73828125 548.703125 C-60.32222278 554.23287733 -41.33677493 562.66191828 -29.609375 581.265625 C-27.29736746 584.73363631 -24.58188242 587.02937129 -20.859375 588.890625 C-7.14665814 589.92586724 6.38922158 588.10866382 19.95703125 586.3137207 C56.98462471 581.47997887 84.45662042 594.29536412 115.515625 613.140625 C147.7682151 632.66159928 182.56228818 642.34854679 220.140625 633.890625 C239.65617601 628.76135444 256.61483358 619.98144173 273.75390625 609.54345703 C304.51776599 590.84064157 331.33831126 581.85483719 367.453125 586.890625 C376.50340854 588.14235954 385.48957954 589.3063887 394.640625 589.390625 C395.80331909 589.41769531 395.80331909 589.41769531 396.98950195 589.4453125 C402.20368959 589.38931496 406.08202616 588.2470178 410.140625 584.890625 C412.00668925 582.78056841 413.50447848 580.51292845 415.015625 578.140625 C427.23280738 560.24639906 446.62984563 552.88211101 467.140625 547.890625 C467.140625 547.230625 467.140625 546.570625 467.140625 545.890625 C466.06167969 545.33117187 464.98273437 544.77171875 463.87109375 544.1953125 C446.49867227 534.98512806 431.18797539 523.62230459 417.140625 509.890625 C415.94953125 508.79234375 415.94953125 508.79234375 414.734375 507.671875 C399.63005452 493.41850216 384.54780335 471.86098457 382.90234375 450.84765625 C382.63000792 439.30921726 385.72820517 429.8247999 393.140625 420.890625 C397.71214692 416.27806608 402.61298634 412.29224879 408.140625 408.890625 C404.39218103 406.59665538 400.40368352 406.20413238 396.140625 405.578125 C382.76151282 403.39532228 370.2876188 398.24117061 361.140625 387.890625 C360.59792969 387.27832031 360.05523438 386.66601562 359.49609375 386.03515625 C354.3728715 379.90738062 351.23247265 373.21819068 348.140625 365.890625 C343.28523521 367.45913569 338.49931635 369.11039644 333.75 370.9765625 C320.72180005 376.08796701 307.89267042 380.25219724 294.140625 382.890625 C293.29516113 383.05288574 292.44969727 383.21514648 291.57861328 383.38232422 C282.51020565 385.05896742 273.49265976 386.16367903 264.265625 386.328125 C263.53448486 386.35044189 262.80334473 386.37275879 262.05004883 386.39575195 C256.95309413 386.373713 254.00807329 385.17506989 250.140625 381.890625 C247.19924777 377.67775905 247.63598137 372.82491827 248.140625 367.890625 C249.44836337 364.4759748 250.47451651 363.30775119 253.5546875 361.37890625 C258.41025824 359.36368571 263.20858717 358.75743001 268.390625 358.015625 C295.83835687 353.712537 320.91537772 344.25132671 342.140625 325.890625 C343.06746094 325.18421875 343.99429687 324.4778125 344.94921875 323.75 C345.67238281 323.13640625 346.39554688 322.5228125 347.140625 321.890625 C347.140625 321.230625 347.140625 320.570625 347.140625 319.890625 C348.130625 319.560625 349.120625 319.230625 350.140625 318.890625 C353.3844563 315.42676639 356.23892617 311.64290557 359.140625 307.890625 C360.06294922 306.70726562 360.06294922 306.70726562 361.00390625 305.5 C382.69011978 276.18622172 388.16302645 237.5329508 383.37207031 202.0456543 C382.78746716 198.61371345 382.02534466 195.25679594 381.140625 191.890625 C380.86653809 190.80297852 380.86653809 190.80297852 380.58691406 189.69335938 C375.33823245 169.50877426 365.91603318 150.35619605 353.140625 133.890625 C352.70814453 133.33262207 352.27566406 132.77461914 351.83007812 132.19970703 C336.70076297 112.99230204 318.39703211 96.9816629 297.140625 84.890625 C296.03074219 84.23707031 294.92085937 83.58351563 293.77734375 82.91015625 C214.76089671 37.59189986 104.23106839 56.06249185 38.57421875 122.3046875 Z " fill="#010101" transform="translate(320.859375,456.109375)"/>
<path d="M0 0 C12.71294485 9.08714953 20.72146451 22.89251443 23.5625 38.25 C26.07103413 56.87104183 22.0405705 73.96607734 11.078125 89.20703125 C2.61654625 99.21389832 -8.23404929 104.48970236 -21.12109375 106.5703125 C-33.39188989 107.24576917 -45.25050931 100.91621775 -54.1875 93.0390625 C-66.44897564 80.57046734 -70.17077816 65.0237567 -70.04101562 48.06762695 C-69.73290846 31.78787182 -63.59655281 16.0062589 -52.10546875 4.23828125 C-48.28680729 0.913576 -44.27256097 -1.56235883 -39.75 -3.8125 C-39.14027344 -4.15152344 -38.53054688 -4.49054687 -37.90234375 -4.83984375 C-25.79905388 -10.61218199 -10.72775061 -6.72512769 0 0 Z " fill="#000000" transform="translate(442.75,633.8125)"/>
<path d="M0 0 C12.33360603 8.88809687 20.11838456 23.21607288 22.91015625 38.05078125 C24.87180174 53.95344127 22.74934982 70.96281001 13.3125 84.3125 C5.54749296 94.19523623 -3.96389743 102.85584814 -16.6875 105.3125 C-31.02558259 106.42666947 -41.61901494 102.89129553 -52.58984375 93.72265625 C-64.98240937 82.1978414 -69.454226 65.48589795 -70.0625 49.0625 C-69.72870671 32.62808934 -63.48131699 16.27658398 -52.0078125 4.43359375 C-36.91664792 -9.36186478 -17.39057048 -10.61771225 0 0 Z " fill="#000000" transform="translate(628.6875,634.6875)"/>
<path d="M0 0 C5.4741704 4.60686356 5.4741704 4.60686356 6.3125 8.6640625 C7.08577917 18.04365243 2.70669674 24.71283151 -1.85791016 32.52978516 C-2.98574299 34.46175794 -4.08742149 36.40497449 -5.17578125 38.359375 C-6.59937273 40.91464461 -8.03379356 43.46332032 -9.4765625 46.0078125 C-12.75952296 51.81106453 -15.99087692 57.64295764 -19.2265625 63.47265625 C-19.86658203 64.62523926 -20.50660156 65.77782227 -21.16601562 66.96533203 C-24.42800329 72.84024047 -27.68735683 78.71660451 -30.9453125 84.59375 C-37.98439777 97.28638079 -45.05040978 109.96236551 -52.2265625 122.578125 C-54.00706026 125.71093651 -55.76067901 128.85480214 -57.4765625 132.0234375 C-57.83113525 132.66949951 -58.18570801 133.31556152 -58.55102539 133.98120117 C-59.44985404 135.62227972 -60.33691434 137.26979006 -61.22265625 138.91796875 C-64.01260359 142.98978379 -66.88555892 146.15906555 -71.8828125 147.2890625 C-77.73496716 147.14612194 -81.61099649 146.81392981 -86.1015625 142.66015625 C-89.39048291 138.93271312 -89.61851978 135.36075035 -89.55273438 130.57226562 C-88.65045832 124.7484838 -85.39323322 119.96693602 -82.4140625 114.97265625 C-81.72459794 113.78076906 -81.03729277 112.58763038 -80.35205078 111.39331055 C-78.95610082 108.96678078 -77.54937337 106.54708001 -76.13232422 104.1328125 C-73.18883181 99.11246781 -70.33493027 94.04178939 -67.4765625 88.97265625 C-66.94909424 88.04300049 -66.42162598 87.11334473 -65.87817383 86.15551758 C-61.47079247 78.37370328 -57.21428965 70.51477439 -52.97607422 62.63989258 C-48.75282718 54.81222415 -44.40052921 47.06439763 -39.99194336 39.33984375 C-37.12774006 34.30418678 -34.326718 29.24343413 -31.60546875 24.12890625 C-30.74115234 22.50758789 -30.74115234 22.50758789 -29.859375 20.85351562 C-28.76176187 18.78600703 -27.67142588 16.71461178 -26.58984375 14.63867188 C-23.27227023 8.39257018 -19.8555782 2.09519346 -13.7890625 -1.83984375 C-8.88473264 -2.75227721 -4.30697264 -2.7458952 0 0 Z " fill="#010101" transform="translate(564.1015625,607.33984375)"/>
<path d="M0 0 C7.19669646 3.38146413 13.79928664 7.28890851 20.375 11.75 C21.75244385 12.67752075 21.75244385 12.67752075 23.15771484 13.6237793 C33.8832609 20.88876894 44.0464914 28.71194067 54 37 C52.67767647 40.05173439 51.43773077 41.71551478 48.7265625 43.62890625 C48.07236328 44.10102539 47.41816406 44.57314453 46.74414062 45.05957031 C46.04482422 45.55553711 45.34550781 46.05150391 44.625 46.5625 C37.25062426 51.93923487 30.570216 57.66654854 24 64 C23.28585937 64.66257812 22.57171875 65.32515625 21.8359375 66.0078125 C15.81367398 71.74215904 10.94909881 78.34711307 6 85 C2.32679161 82.25848004 1.60482444 78.2053139 0.4375 74 C0.22931641 73.29488281 0.02113281 72.58976563 -0.19335938 71.86328125 C-3.3174035 60.95360992 -4.34849958 50.46190162 -4.31567383 39.15039062 C-4.31253381 36.89923678 -4.33598357 34.64942812 -4.36132812 32.3984375 C-4.46092191 8.92184383 -4.46092191 8.92184383 0 0 Z " fill="#FCFCFC" transform="translate(322,490)"/>
<path d="M0 0 C2.31500966 2.31500966 2.46851952 3.34541457 3.0625 6.5 C3.21847656 7.2940625 3.37445312 8.088125 3.53515625 8.90625 C7.04829397 32.28780525 7.65032974 62.51161404 -4 84 C-7.48376769 82.8387441 -8.01509389 81.9623468 -10.125 79.0625 C-14.12891877 73.75751748 -18.46155102 68.85247675 -23 64 C-23.77214844 63.17371094 -24.54429687 62.34742188 -25.33984375 61.49609375 C-33.67802786 52.8606 -43.17637649 45.85369082 -53 39 C-46.50356738 22.81397297 -14.89514112 7.44757056 0 0 Z " fill="#FDFDFD" transform="translate(701,490)"/>
</svg>
